<svg xmlns="http://www.w3.org/2000/svg" viewBox="0 0 1200 630" width="1200" height="630">
  <defs>
    <linearGradient id="g" x1="0" y1="0" x2="1" y2="1">
      <stop offset="0" stop-color="#ff5fa2"/>
      <stop offset="1" stop-color="#b05cff"/>
    </linearGradient>
    <linearGradient id="bg" x1="0" y1="0" x2="0" y2="1">
      <stop offset="0" stop-color="#11131c"/>
      <stop offset="1" stop-color="#06070c"/>
    </linearGradient>
  </defs>
  <rect width="1200" height="630" fill="url(#bg)"/>
  <!-- falling lanes motif on the right -->
  <g opacity="0.5">
    <rect x="760" y="0" width="440" height="630" fill="#0c0e16"/>
    <g fill="url(#g)">
      <rect x="800" y="120" width="60" height="26" rx="8"/>
      <rect x="900" y="220" width="60" height="26" rx="8"/>
      <rect x="1000" y="60" width="60" height="26" rx="8"/>
      <rect x="1100" y="300" width="60" height="26" rx="8"/>
      <rect x="800" y="360" width="60" height="26" rx="8"/>
      <rect x="900" y="430" width="60" height="26" rx="8"/>
      <rect x="1000" y="380" width="60" height="26" rx="8"/>
    </g>
    <rect x="760" y="500" width="440" height="5" fill="#ffd54f"/>
  </g>
  <!-- mark -->
  <g transform="translate(96,250)">
    <rect x="0" y="0" width="120" height="120" rx="28" fill="#11131a"/>
    <rect x="1" y="1" width="118" height="118" rx="27" fill="none" stroke="url(#g)" stroke-width="5"/>
    <g fill="url(#g)">
      <rect x="22" y="52" width="14" height="22" rx="5"/>
      <rect x="42" y="34" width="14" height="22" rx="5"/>
      <rect x="64" y="60" width="14" height="22" rx="5"/>
      <rect x="84" y="42" width="14" height="22" rx="5"/>
    </g>
    <rect x="16" y="86" width="88" height="6" rx="3" fill="#ffd54f"/>
  </g>
  <text x="250" y="300" font-family="Segoe UI, system-ui, sans-serif" font-size="120" font-weight="800" fill="#ffffff">mosu<tspan fill="#ff5fa2">!</tspan></text>
  <text x="254" y="372" font-family="Segoe UI, system-ui, sans-serif" font-size="38" font-weight="500" fill="#9aa0ad">Free online osu!mania beatmap editor</text>
  <text x="254" y="430" font-family="Segoe UI, system-ui, sans-serif" font-size="26" font-weight="400" fill="#6b7280">Map, auto-generate, test &amp; export .osz — right in your browser.</text>
</svg>
